<svg width="26" height="24" viewBox="0 0 26 24" fill="none" xmlns="http://www.w3.org/2000/svg">
<path d="M24.3462 11.5426L13.5129 1.95922C13.3776 1.84023 13.1945 1.77344 13.0037 1.77344C12.8129 1.77344 12.6299 1.84023 12.4945 1.95922L1.66121 11.5426C1.54289 11.6648 1.48107 11.822 1.48809 11.9828C1.49511 12.1436 1.57046 12.2961 1.69908 12.4099C1.82771 12.5237 2.00013 12.5903 2.1819 12.5965C2.36366 12.6027 2.54138 12.5481 2.67955 12.4434L13.0001 3.31367L23.3207 12.4498C23.4588 12.5544 23.6365 12.6091 23.8183 12.6029C24.0001 12.5967 24.1725 12.5301 24.3011 12.4163C24.4297 12.3025 24.5051 12.15 24.5121 11.9892C24.5191 11.8284 24.4573 11.6712 24.339 11.5489L24.3462 11.5426Z" fill="#FF276A"/>
<path d="M20.2221 20.9406H16.611V14.5517H9.38881V20.9406H5.7777V11.9961L4.33325 13.2739V20.9406C4.33325 21.2794 4.48543 21.6045 4.75632 21.8441C5.02721 22.0837 5.39461 22.2183 5.7777 22.2183H10.8333V15.8294H15.1666V22.2183H20.2221C20.6052 22.2183 20.9726 22.0837 21.2435 21.8441C21.5144 21.6045 21.6666 21.2794 21.6666 20.9406V13.1206L20.2221 11.8428V20.9406Z" fill="#FF276A"/>
</svg>
