<svg width="23" height="24" viewBox="0 0 23 24" fill="none" xmlns="http://www.w3.org/2000/svg">
<path d="M21.9205 23.4942C21.7649 23.4951 21.6109 23.4625 21.4693 23.3986C21.3276 23.3348 21.2016 23.2411 21.1 23.1243C20.9983 23.0074 20.9235 22.8701 20.8805 22.7217C20.8376 22.5734 20.8276 22.4176 20.8513 22.2651V17.9811C20.8585 17.1524 20.5335 16.3549 19.948 15.7638C19.3624 15.1727 18.5641 14.8364 17.7286 14.829H5.2856C4.45077 14.8384 3.65371 15.1756 3.06894 15.7666C2.48416 16.3576 2.15932 17.1543 2.16551 17.9823V22.2919V22.3763C2.16551 22.3763 2.16551 22.4133 2.16551 22.4222C2.16551 22.707 2.05142 22.9802 1.84837 23.1816C1.64531 23.383 1.3699 23.4961 1.08274 23.4961C0.795571 23.4961 0.520199 23.383 0.317143 23.1816C0.114087 22.9802 0 22.707 0 22.4222C0.000424347 22.373 0.00430184 22.3239 0.0115975 22.2753V17.9823C0.0088177 16.5894 0.561423 15.2519 1.54892 14.2615C2.53641 13.2711 3.87866 12.7081 5.283 12.6953H17.7286C19.1328 12.7078 20.4751 13.2705 21.4626 14.2607C22.4502 15.2509 23.0028 16.5883 23 17.9811V22.2906V22.3954C23 22.4043 23 22.412 23 22.4209C22.9997 22.705 22.8859 22.9774 22.6836 23.1786C22.4813 23.3797 22.2069 23.4932 21.9205 23.4942Z" fill="#8A90A8"/>
<path d="M11.5038 10.9526C10.4613 10.9526 9.4421 10.6459 8.57522 10.0714C7.70834 9.49695 7.03266 8.68043 6.63368 7.72509C6.2347 6.76976 6.13032 5.71852 6.33372 4.70435C6.53712 3.69017 7.03915 2.75861 7.77637 2.02743C8.51359 1.29625 9.45293 0.798291 10.4755 0.596558C11.498 0.394826 12.5579 0.49835 13.5211 0.894063C14.4843 1.28978 15.3077 1.95992 15.8869 2.81969C16.4662 3.67947 16.7753 4.69028 16.7753 5.72432C16.7725 7.11011 16.2163 8.43836 15.2283 9.41825C14.2403 10.3982 12.9011 10.9499 11.5038 10.9526ZM11.5038 2.62981C10.8868 2.63006 10.2837 2.81176 9.77075 3.15194C9.25782 3.49212 8.85812 3.97554 8.62216 4.54101C8.38621 5.10648 8.32464 5.72865 8.44517 6.32885C8.56571 6.92904 8.86297 7.4803 9.29938 7.91295C9.73578 8.3456 10.2917 8.6402 10.8969 8.75949C11.5021 8.87879 12.1294 8.81743 12.6995 8.58318C13.2695 8.34892 13.7567 7.95228 14.0995 7.44342C14.4423 6.93455 14.6253 6.33631 14.6253 5.72432C14.6242 4.9037 14.295 4.11702 13.7098 3.53686C13.1246 2.95671 12.3313 2.63048 11.5038 2.62981Z" fill="#8A90A8"/>
</svg>
