<svg width="26" height="24" viewBox="0 0 26 24" fill="none" xmlns="http://www.w3.org/2000/svg">
<path d="M12.7836 6.14279C12.7827 6.36065 12.7684 6.57823 12.7408 6.7942C12.7518 6.71951 12.7591 6.64766 12.77 6.57297C12.715 6.99149 12.6078 7.40082 12.4513 7.79069L12.5314 7.59215C12.4175 7.87198 12.2785 8.14008 12.1162 8.39293C12.0734 8.45911 12.0315 8.52245 11.986 8.58202C11.8877 8.72572 12.1035 8.43264 12.0151 8.54325L11.9487 8.62929C11.8576 8.74558 11.7575 8.85525 11.6564 8.96303C11.5553 9.07081 11.4461 9.17008 11.335 9.26651C11.3086 9.28826 11.2822 9.31379 11.2521 9.33553C11.1428 9.43008 11.4087 9.21357 11.3022 9.29393C11.2412 9.3412 11.1802 9.38848 11.1201 9.42913C10.872 9.60201 10.6086 9.74986 10.3334 9.87064L10.5246 9.78745C10.149 9.9496 9.75479 10.0608 9.3518 10.1183L9.56487 10.0881C9.14849 10.146 8.72652 10.146 8.31014 10.0881L8.52321 10.1183C8.12014 10.0612 7.72591 9.94998 7.35042 9.78745L7.54164 9.87064C7.27215 9.75229 7.01394 9.60796 6.77041 9.43953C6.70667 9.3951 6.64567 9.3516 6.5883 9.30433C6.4499 9.20222 6.73215 9.4263 6.62562 9.33459L6.54277 9.26557C6.43077 9.17102 6.32514 9.06703 6.22134 8.96208C6.11754 8.85714 6.02193 8.74369 5.92905 8.62835C5.90811 8.60093 5.88353 8.57351 5.86258 8.54231C5.77153 8.42886 5.98005 8.70492 5.90265 8.59431C5.85713 8.53096 5.8116 8.46762 5.77244 8.40522C5.60592 8.14765 5.46354 7.87412 5.34722 7.58837L5.42735 7.78691C5.27118 7.3969 5.16407 6.98762 5.10866 6.56919C5.11959 6.64388 5.12687 6.71573 5.1378 6.79042C5.08199 6.35808 5.08199 5.91995 5.1378 5.48761C5.12687 5.5623 5.11959 5.63415 5.10866 5.70884C5.16369 5.29032 5.27081 4.881 5.42735 4.49112L5.34722 4.68966C5.46118 4.40983 5.60018 4.14172 5.76242 3.88888C5.80522 3.8227 5.84711 3.75935 5.89264 3.69979C5.99098 3.55608 5.77609 3.84917 5.8635 3.73855L5.92997 3.65252C6.02102 3.53623 6.12118 3.42656 6.22225 3.31878C6.32332 3.211 6.43259 3.11173 6.54367 3.01529C6.57008 2.99355 6.59649 2.96802 6.62654 2.94628C6.7358 2.85174 6.46993 3.06729 6.57646 2.98788C6.63747 2.94061 6.69847 2.89334 6.75857 2.85268C7.00665 2.6798 7.27008 2.53195 7.54528 2.41116L7.35406 2.49436C7.72967 2.33221 8.12386 2.22099 8.52685 2.16346L8.31378 2.19372C8.73016 2.13575 9.15213 2.13575 9.56851 2.19372L9.35544 2.16346C9.75851 2.22058 10.1527 2.33182 10.5282 2.49436L10.337 2.41116C10.6065 2.52948 10.8647 2.67383 11.1082 2.84228C11.172 2.88672 11.233 2.9302 11.2903 2.97748C11.4288 3.07958 11.1465 2.85646 11.253 2.94722L11.3359 3.01624C11.4479 3.11078 11.5535 3.21478 11.6573 3.31972C11.7611 3.42467 11.8567 3.53812 11.9496 3.65347C11.9705 3.68088 11.9951 3.7083 12.0161 3.7395C12.1071 3.85295 11.8986 3.57688 11.976 3.6875C12.0215 3.75084 12.0671 3.81419 12.1062 3.87659C12.2727 4.13418 12.4151 4.4077 12.5314 4.69344L12.4513 4.4949C12.6075 4.88491 12.7146 5.29419 12.77 5.71263C12.7591 5.63794 12.7518 5.56608 12.7408 5.49139C12.767 5.70751 12.7813 5.92499 12.7836 6.14279C12.7836 6.36245 12.8677 6.57311 13.0173 6.72842C13.1669 6.88374 13.3697 6.971 13.5813 6.971C13.7928 6.971 13.9957 6.88374 14.1453 6.72842C14.2949 6.57311 14.3789 6.36245 14.3789 6.14279C14.3799 4.98421 14.0354 3.85374 13.3928 2.90657C12.7344 1.94821 11.8119 1.21942 10.7468 0.816216C9.70178 0.43539 8.57003 0.393303 7.5015 0.695534C6.43297 0.997764 5.47813 1.63004 4.76356 2.50855C4.02995 3.43083 3.588 4.5655 3.4979 5.758C3.4203 6.89765 3.67802 8.03489 4.2369 9.01904C4.79578 10.0032 5.62945 10.7878 6.62745 11.2689C7.70011 11.7759 8.89937 11.9188 10.0547 11.6774C11.122 11.4407 12.0963 10.8772 12.8519 10.0596C13.6075 9.24205 14.1096 8.208 14.2933 7.09107C14.3425 6.77841 14.3693 6.4624 14.3735 6.14563C14.3735 5.92673 14.2897 5.71679 14.1406 5.56201C13.9916 5.40722 13.7894 5.32027 13.5785 5.32027C13.3677 5.32027 13.1655 5.40722 13.0165 5.56201C12.8674 5.71679 12.7836 5.92673 12.7836 6.14563V6.14279Z" fill="#8A90A8"/>
<path d="M21.8814 8.07466C21.8812 8.228 21.8714 8.38116 21.8523 8.5332C21.8632 8.45851 21.8714 8.38665 21.8814 8.31196C21.8418 8.6189 21.7621 8.91884 21.6447 9.20351L21.7248 9.00496C21.6432 9.19971 21.5463 9.38721 21.4352 9.56561C21.4061 9.61004 21.3742 9.65353 21.3442 9.69797C21.2832 9.79251 21.4052 9.61762 21.4052 9.61762C21.4052 9.61762 21.3597 9.67529 21.3496 9.68663C21.2832 9.76983 21.214 9.84924 21.1393 9.92677C21.0647 10.0043 20.9982 10.0676 20.9208 10.1338L20.8543 10.1915C20.7851 10.252 21.0082 10.0752 20.9344 10.1281L20.8069 10.2227C20.6322 10.3444 20.4469 10.4489 20.2534 10.5347L20.4446 10.4515C20.1698 10.5715 19.8811 10.6541 19.5859 10.6973L19.799 10.667C19.5051 10.7057 19.2078 10.7057 18.9139 10.667L19.127 10.6973C18.8314 10.6561 18.5425 10.5734 18.2684 10.4515L18.4596 10.5347C18.272 10.4499 18.0914 10.3494 17.9196 10.234C17.8768 10.2038 17.834 10.1707 17.7922 10.1395C17.7011 10.0761 17.8696 10.2028 17.8696 10.2028C17.8696 10.2028 17.8131 10.1556 17.8031 10.1452C17.7239 10.0762 17.6465 10.0043 17.5718 9.92677C17.4971 9.84924 17.4361 9.78023 17.3724 9.70081C17.3542 9.67907 17.3351 9.65354 17.3169 9.6318C17.2586 9.55994 17.4288 9.79157 17.3778 9.71499C17.3487 9.67056 17.3169 9.62707 17.2868 9.58263C17.1697 9.40147 17.069 9.20933 16.9863 9.00874L17.0665 9.20729C16.9509 8.92194 16.8713 8.62227 16.8297 8.31574C16.8406 8.39043 16.8479 8.46229 16.8588 8.53698C16.8217 8.23187 16.8217 7.92312 16.8588 7.61802C16.8479 7.6927 16.8406 7.76455 16.8297 7.83924C16.8693 7.53229 16.949 7.23237 17.0665 6.9477L16.9863 7.14624C17.068 6.9515 17.1648 6.76401 17.2759 6.5856C17.305 6.54117 17.3369 6.49768 17.3669 6.45324C17.428 6.3587 17.3059 6.5336 17.3059 6.5336C17.3059 6.5336 17.3514 6.47593 17.3614 6.46458C17.4279 6.38138 17.4971 6.30197 17.5718 6.22444C17.6465 6.14692 17.7129 6.08357 17.7903 6.01739L17.8568 5.95972C17.926 5.89922 17.7029 6.07601 17.7766 6.02307C17.8194 5.99282 17.8613 5.95972 17.9041 5.92852C18.0786 5.80689 18.2636 5.70244 18.4568 5.61652L18.2657 5.69972C18.5405 5.57972 18.8291 5.4971 19.1243 5.45391L18.9112 5.48416C19.2051 5.44555 19.5024 5.44555 19.7963 5.48416L19.5832 5.45391C19.8788 5.49504 20.1677 5.57774 20.4418 5.69972L20.2506 5.61652C20.4382 5.70136 20.6188 5.80192 20.7906 5.91718C20.8334 5.94744 20.8752 5.98052 20.918 6.01172C21.0091 6.07506 20.8416 5.94837 20.8416 5.94837C20.8416 5.94837 20.8971 5.99565 20.908 6.00605C20.9882 6.07506 21.0647 6.14692 21.1393 6.22444C21.214 6.30197 21.275 6.37099 21.3387 6.4504C21.357 6.47215 21.3761 6.49767 21.3943 6.51942C21.4525 6.59127 21.2823 6.35964 21.3332 6.43622C21.3624 6.48066 21.3943 6.52415 21.4243 6.56858C21.5415 6.74974 21.6421 6.94187 21.7248 7.14246L21.6447 6.94392C21.7603 7.22927 21.8398 7.52893 21.8814 7.83546C21.8705 7.76077 21.8632 7.68892 21.8523 7.61424C21.8712 7.76724 21.881 7.92133 21.8814 8.0756C21.8814 8.18436 21.902 8.29206 21.9421 8.39254C21.9822 8.49302 22.041 8.58433 22.115 8.66123C22.1891 8.73814 22.2771 8.79914 22.3738 8.84076C22.4706 8.88239 22.5743 8.90381 22.6791 8.90381C22.7838 8.90381 22.8875 8.88239 22.9843 8.84076C23.0811 8.79914 23.169 8.73814 23.2431 8.66123C23.3172 8.58433 23.3759 8.49302 23.416 8.39254C23.4561 8.29206 23.4767 8.18436 23.4767 8.0756C23.4773 7.20591 23.2211 6.35692 22.7428 5.643C22.2413 4.90742 21.5368 4.34702 20.7223 4.03576C19.9363 3.74988 19.0853 3.71772 18.2813 3.9435C17.4773 4.16929 16.7579 4.64244 16.2178 5.30075C15.6527 6.00391 15.3126 6.8723 15.2445 7.78536C15.1865 8.64166 15.3789 9.49616 15.7964 10.237C16.214 10.9779 16.8372 11.5707 17.5845 11.9377C18.4097 12.3325 19.3345 12.4447 20.2251 12.2582C21.0241 12.0785 21.7536 11.6563 22.321 11.0452C22.8884 10.4342 23.2682 9.66185 23.412 8.82628C23.4524 8.5762 23.4755 8.32344 23.4812 8.06993C23.4742 7.85475 23.387 7.65082 23.2379 7.50116C23.0888 7.35151 22.8896 7.26785 22.6822 7.26785C22.4749 7.26785 22.2757 7.35151 22.1266 7.50116C21.9775 7.65082 21.8902 7.85475 21.8832 8.06993L21.8814 8.07466Z" fill="#8A90A8"/>
<path d="M16.2652 19.6091V20.46C16.2775 20.7629 16.2739 21.0662 16.2543 21.3686C16.2652 21.2939 16.2725 21.2221 16.2834 21.1474C16.2652 21.2832 16.2303 21.4159 16.1796 21.5425L16.2597 21.344C16.2262 21.4225 16.1873 21.4983 16.1432 21.5709C16.0366 21.7392 16.2497 21.4499 16.1641 21.5492C16.1377 21.5794 16.1113 21.6125 16.0813 21.6437C16.0512 21.6749 16.0202 21.7014 15.9902 21.7297C15.8891 21.8243 16.1723 21.6087 16.0248 21.6995C15.9474 21.7468 15.8736 21.794 15.7935 21.8319L15.9847 21.7487C15.8628 21.8013 15.7349 21.8375 15.6041 21.8564L15.8172 21.8262C15.6482 21.8397 15.4785 21.8435 15.3091 21.8375H3.84625C3.31722 21.8375 2.78819 21.8432 2.25917 21.8375C2.1927 21.8375 2.12623 21.8319 2.06249 21.8262L2.27556 21.8564C2.14478 21.8375 2.01687 21.8013 1.89495 21.7487L2.08616 21.8319C2.01092 21.797 1.93819 21.7566 1.86854 21.7109C1.70647 21.6002 1.98509 21.8215 1.88949 21.7326C1.86035 21.7052 1.82848 21.6778 1.79843 21.6466C1.76838 21.6154 1.74289 21.5832 1.71557 21.552C1.62452 21.4471 1.83212 21.7411 1.74471 21.5879C1.69918 21.5076 1.65365 21.43 1.61723 21.3478L1.69736 21.5463C1.64667 21.4197 1.61178 21.2869 1.59356 21.1511C1.60448 21.2258 1.61177 21.2977 1.6227 21.3724C1.59763 20.5301 1.61009 19.6872 1.66003 18.8462C1.6491 18.9209 1.64182 18.9927 1.63089 19.0674C1.69652 18.548 1.82914 18.0402 2.02516 17.5576L1.94503 17.7561C2.08804 17.4082 2.26147 17.0746 2.46313 16.7596C2.51594 16.6793 2.56966 16.5998 2.62521 16.5223C2.65981 16.4722 2.75268 16.3653 2.58514 16.5743C2.61428 16.5383 2.64342 16.4996 2.6762 16.4608C2.79093 16.3171 2.91294 16.1772 3.04042 16.0439C3.16784 15.9107 3.30188 15.7844 3.44197 15.6657C3.46837 15.644 3.51936 15.5825 3.55123 15.5712C3.51117 15.5797 3.38096 15.7064 3.50115 15.6128C3.57582 15.5551 3.6523 15.4994 3.7297 15.4445C4.03192 15.2331 4.35336 15.0529 4.68942 14.9065L4.4982 14.9898C4.96319 14.7882 5.45135 14.6499 5.95052 14.5785L5.73745 14.6087C6.49265 14.5423 7.25113 14.5256 8.00835 14.5586H10.9485C11.3553 14.5486 11.7623 14.5663 12.1668 14.6116L11.9537 14.5813C12.4423 14.6526 12.9202 14.788 13.376 14.9841L13.1848 14.9009C13.5389 15.0576 13.8774 15.2498 14.1955 15.4748C14.2647 15.5249 14.3339 15.5769 14.4031 15.6298C14.5251 15.7244 14.2465 15.5003 14.3895 15.6213C14.4268 15.6515 14.4614 15.6818 14.496 15.7159C14.6262 15.8321 14.7537 15.9532 14.8766 16.0827C14.9995 16.2122 15.1133 16.3445 15.2226 16.4826C15.2463 16.5157 15.2709 16.5488 15.2973 16.5772C15.127 16.3701 15.2572 16.5223 15.2918 16.5772C15.3264 16.632 15.3829 16.7124 15.4302 16.7814C15.6319 17.0936 15.8039 17.4254 15.9438 17.7722L15.8636 17.5736C16.0525 18.045 16.182 18.5398 16.2488 19.0456C16.2379 18.971 16.2306 18.8991 16.2197 18.8244C16.2491 19.0849 16.2652 19.3469 16.2679 19.6091C16.2679 19.8288 16.352 20.0395 16.5015 20.1948C16.6511 20.3501 16.854 20.4373 17.0656 20.4373C17.2771 20.4373 17.48 20.3501 17.6296 20.1948C17.7792 20.0395 17.8632 19.8288 17.8632 19.6091C17.8623 18.221 17.444 16.8679 16.6667 15.7385C15.8471 14.5547 14.687 13.6713 13.3533 13.2152C12.5941 12.9825 11.8043 12.8762 11.0132 12.9003H6.9503C6.30182 12.8827 5.65345 12.9401 5.01721 13.0715C3.88271 13.3522 2.84114 13.9428 2.00045 14.7821C1.15976 15.6214 0.550544 16.6789 0.235935 17.845C0.0466427 18.7055 -0.0293213 19.5887 0.0101202 20.4704C-0.000863368 20.7686 0.00278275 21.0671 0.0210459 21.3648C0.053913 21.7534 0.179845 22.1272 0.387379 22.4524C0.594914 22.7775 0.877461 23.0435 1.20931 23.2264C1.5427 23.4003 1.91063 23.491 2.28375 23.4911H15.3446C15.8354 23.5219 16.3249 23.412 16.7596 23.1734C17.0859 22.9714 17.3581 22.6876 17.5514 22.348C17.7447 22.0084 17.8528 21.6238 17.8659 21.2296C17.8769 20.9507 17.8659 20.669 17.8659 20.3872V19.6035C17.8633 19.3847 17.7785 19.1756 17.6294 19.0208C17.4804 18.8661 17.279 18.7779 17.0683 18.7752C16.8566 18.7796 16.6548 18.8688 16.505 19.0243C16.3553 19.1797 16.2694 19.3893 16.2652 19.6091Z" fill="#8A90A8"/>
<path d="M24.3761 18.3827C24.3858 18.6228 24.3822 18.8633 24.3652 19.103C24.3761 19.0284 24.3843 18.9566 24.3944 18.8819C24.3808 18.9789 24.3566 19.0741 24.3224 19.1655L24.4025 18.9669C24.3758 19.0331 24.3429 19.0965 24.3042 19.156C24.256 19.2307 24.2031 19.2421 24.347 19.1059C24.3233 19.1305 24.3015 19.1607 24.275 19.1863C24.2641 19.1976 24.2059 19.2638 24.1977 19.261C24.1895 19.2581 24.3916 19.1201 24.245 19.2165C24.1866 19.2547 24.1257 19.2888 24.0629 19.3186L24.2541 19.2354C24.1661 19.2711 24.0744 19.2961 23.9809 19.3101L24.1931 19.2799C23.9295 19.2988 23.665 19.3026 23.401 19.2912H17.0727L17.8703 20.1194C17.8891 19.4214 17.8302 18.7234 17.6945 18.0394C17.4921 17.1521 17.1124 16.3189 16.58 15.5936C16.2682 15.162 15.9085 14.7701 15.5083 14.426V15.5964C15.6039 15.5019 15.705 15.414 15.8061 15.326C15.8753 15.2655 15.6358 15.4556 15.7606 15.362C15.7815 15.345 15.8061 15.3289 15.827 15.31C15.8826 15.2684 15.9418 15.2268 16 15.188C16.2225 15.0376 16.4574 14.9082 16.7021 14.8013L16.5108 14.8845C16.8663 14.731 17.2389 14.6243 17.6199 14.5669L17.4068 14.5971C17.8928 14.5493 18.3813 14.5344 18.8692 14.5527H20.5227C20.7795 14.5486 21.0362 14.5625 21.2912 14.5943L21.0781 14.564C21.4696 14.6191 21.8524 14.7278 22.2163 14.8874L22.0251 14.8042C22.2836 14.9197 22.5318 15.0583 22.7672 15.2183L22.9402 15.3431C23.0622 15.4376 22.9293 15.31 22.8901 15.3015C22.9138 15.3071 22.9511 15.3516 22.973 15.3705C23.085 15.465 23.1933 15.5691 23.2971 15.674C23.4009 15.7789 23.4911 15.8839 23.5794 15.9945C23.6004 16.0219 23.6222 16.0521 23.6459 16.0795C23.7014 16.1457 23.5129 15.8905 23.6058 16.0266L23.7278 16.2034C23.8882 16.4515 24.0253 16.7149 24.1376 16.99L24.0575 16.7915C24.21 17.1698 24.3146 17.5671 24.3689 17.9733C24.3579 17.8986 24.3507 17.8267 24.3397 17.7521C24.367 17.957 24.3813 18.1635 24.3825 18.3704C24.3825 18.59 24.4665 18.8006 24.6161 18.956C24.7657 19.1113 24.9686 19.1985 25.1801 19.1985C25.3917 19.1985 25.5946 19.1113 25.7442 18.956C25.8938 18.8006 25.9778 18.59 25.9778 18.3704C25.9668 17.1155 25.5481 15.9012 24.7895 14.9242C24.0873 14.0177 23.1234 13.3692 22.0397 13.074C21.352 12.9209 20.648 12.8605 19.9454 12.8944H18.0815C16.7056 12.8916 15.3814 13.4383 14.3829 14.4213C14.234 14.5768 14.1504 14.7872 14.1504 15.0065C14.1504 15.2258 14.234 15.4362 14.3829 15.5917C14.5636 15.7435 14.736 15.9058 14.8992 16.0777C14.9793 16.1609 15.0531 16.2488 15.1277 16.3377C15.1678 16.3849 15.2051 16.4322 15.2416 16.4814C15.2571 16.5037 15.2741 16.5249 15.2925 16.5447C15.3481 16.6166 15.165 16.3679 15.2524 16.4927C15.5319 16.8833 15.7658 17.307 15.949 17.7549L15.8689 17.5563C16.058 18.0274 16.1877 18.5219 16.255 19.0275C16.244 18.9528 16.2368 18.8809 16.2259 18.8062C16.2708 19.2398 16.2878 19.6759 16.2768 20.1118C16.2796 20.3306 16.3646 20.5396 16.5136 20.6943C16.6625 20.8489 16.8638 20.9371 17.0745 20.94H20.3242C21.5498 20.94 22.7827 20.94 24.0046 20.94C24.3288 20.9413 24.6483 20.8605 24.9357 20.7046C25.223 20.5488 25.4694 20.3226 25.6536 20.0457C25.9337 19.536 26.0483 18.9463 25.9805 18.3637C25.9782 18.1448 25.8934 17.9356 25.7443 17.7809C25.5952 17.6261 25.3937 17.538 25.1829 17.5356C24.9684 17.539 24.7637 17.6296 24.6129 17.788C24.462 17.9464 24.3771 18.1599 24.3761 18.3827Z" fill="#8A90A8"/>
</svg>
