<svg width="27" height="35" viewBox="0 0 27 35" fill="none" xmlns="http://www.w3.org/2000/svg">
<path d="M4.7627 26.2852H6.87669V29.1032H8.48569V26.2852H14.1237V24.6783H6.37169V1.62125H20.2627V24.6783H16.9397V23.9782H15.3327V29.8132H16.9417V26.2912H21.8737V0.0112305H4.7627V26.2852Z" fill="#8A90A8"/>
<path d="M16.9429 22.7569V21.9489C16.9151 21.6339 17.0127 21.3206 17.2145 21.0771C17.4164 20.8337 17.7062 20.6798 18.0209 20.6489C18.0978 20.6428 18.1751 20.6428 18.2519 20.6489H19.0519V4.94888H18.2519C17.9053 4.94704 17.5733 4.80835 17.3284 4.56302C17.0834 4.31769 16.9453 3.98557 16.9439 3.63889V2.83887H9.69494V3.64789C9.72278 3.96322 9.6249 4.27677 9.42262 4.52026C9.22033 4.76376 8.93003 4.91745 8.61494 4.94788C8.53884 4.95638 8.46203 4.95638 8.38593 4.94788H7.58594V20.6479H8.38593C9.31493 20.6479 9.69494 21.0279 9.69494 21.9589V22.7589L16.9429 22.7569ZM11.2169 4.43387H15.4289C15.5755 4.90893 15.8357 5.34109 16.187 5.6929C16.5383 6.04471 16.9701 6.30558 17.4449 6.45288V19.1219C16.9499 19.2323 16.4965 19.4815 16.1381 19.8403C15.7796 20.1991 15.5308 20.6527 15.4209 21.1479H11.2209C11.1311 20.6422 10.8881 20.1764 10.5249 19.8133C10.1616 19.4502 9.69564 19.2075 9.18993 19.1179V6.46487C9.68608 6.3544 10.1404 6.10459 10.4995 5.74481C10.8585 5.38504 11.1074 4.93023 11.2169 4.43387V4.43387Z" fill="#8A90A8"/>
<path d="M14.1236 17.6289H12.5146V19.2379H14.1236V17.6289Z" fill="#8A90A8"/>
<path d="M14.1236 6.35449H12.5146V7.96349H14.1236V6.35449Z" fill="#8A90A8"/>
<path d="M13.2443 16.4203H13.3503C14.2959 16.4201 15.2031 16.0467 15.8748 15.3811C16.5465 14.7156 16.9284 13.8119 16.9373 12.8663V12.7963C16.9435 11.8455 16.5732 10.9308 15.9073 10.252C15.2415 9.57325 14.3341 9.18547 13.3833 9.17334H13.2833C12.3367 9.17619 11.4292 9.55179 10.7575 10.2188C10.0858 10.8859 9.7038 11.7907 9.69434 12.7373L9.69933 12.7983C9.69079 13.7483 10.0591 14.6628 10.7235 15.3417C11.388 16.0206 12.2945 16.4084 13.2443 16.4203V16.4203ZM15.3333 12.7973C15.3419 13.321 15.1427 13.8268 14.7794 14.2041C14.416 14.5813 13.918 14.7993 13.3943 14.8103H13.2793C12.7623 14.8097 12.266 14.6065 11.8969 14.2445C11.5278 13.8825 11.3151 13.3903 11.3043 12.8733V12.7943C11.2947 12.2708 11.4933 11.7647 11.8565 11.3875C12.2197 11.0102 12.7178 10.7926 13.2413 10.7823H13.3563C13.8737 10.7832 14.3701 10.9865 14.7396 11.3487C15.109 11.7108 15.3221 12.2031 15.3333 12.7203V12.7973Z" fill="#8A90A8"/>
<path d="M8.48595 30.3145H6.87695V31.9235H8.48595V30.3145Z" fill="#8A90A8"/>
<path d="M12.7125 27.4951H11.1035V34.0371H12.7125V27.4951Z" fill="#8A90A8"/>
<path d="M26.1441 10.583H24.5361V20.647H26.1441V10.583Z" fill="#8A90A8"/>
<path d="M2.109 8.46924H0.5V14.3052H2.109V8.46924Z" fill="#8A90A8"/>
<path d="M2.109 15.5161H0.5V17.1251H2.109V15.5161Z" fill="#8A90A8"/>
<path d="M2.109 18.3345H0.5V19.9435H2.109V18.3345Z" fill="#8A90A8"/>
<path d="M2.109 21.1533H0.5V22.7623H2.109V21.1533Z" fill="#8A90A8"/>
</svg>
