<svg width="28" height="24" viewBox="0 0 28 24" fill="none" xmlns="http://www.w3.org/2000/svg">
<path d="M3.40811 21.7149L2.54595 21.7209C2.23853 21.7183 1.94447 21.5862 1.72752 21.3535C1.51057 21.1207 1.38822 20.8059 1.38699 20.4773V3.51099C1.38772 3.18236 1.50976 2.86731 1.72658 2.63427C1.94341 2.40124 2.23751 2.26903 2.54501 2.26638H14.0197C14.151 2.40088 14.3153 2.49286 14.4935 2.53164C14.6717 2.57042 14.8566 2.55442 15.0266 2.4855C15.1967 2.41657 15.3449 2.29755 15.4543 2.14222C15.5636 1.9869 15.6295 1.80164 15.6443 1.60792C15.6591 1.4142 15.6222 1.21997 15.5379 1.04774C15.4536 0.875509 15.3254 0.732339 15.1681 0.634832C15.0108 0.537325 14.8308 0.489475 14.649 0.49683C14.4673 0.504185 14.2912 0.566443 14.1413 0.676386C14.098 0.708225 14.0573 0.743934 14.0197 0.783125H2.54407C1.86872 0.786054 1.22193 1.07468 0.745173 1.58588C0.268417 2.09708 0.000492678 2.78925 0 3.51099V20.4773C0.00322071 21.1973 0.27229 21.8869 0.748699 22.396C1.22511 22.9051 1.87033 23.1927 2.54407 23.1961H3.40811C3.59212 23.1959 3.76851 23.1176 3.89854 22.9784C4.02857 22.8393 4.10161 22.6506 4.10161 22.454C4.10086 22.2579 4.02749 22.07 3.89755 21.9315C3.7676 21.793 3.59164 21.7151 3.40811 21.7149Z" fill="#8A90A8"/>
<path d="M27.0577 7.74103H26.9107V3.51179C26.9075 2.79178 26.6384 2.10224 26.162 1.59311C25.6856 1.08398 25.0404 0.796426 24.3666 0.792984H20.315C20.2217 0.78931 20.1287 0.805772 20.0415 0.841388C19.9543 0.877003 19.8747 0.931041 19.8075 1.00027C19.7403 1.0695 19.6868 1.1525 19.6503 1.24431C19.6138 1.33612 19.595 1.43485 19.595 1.53461C19.595 1.63437 19.6138 1.73311 19.6503 1.82492C19.6868 1.91673 19.7403 1.99973 19.8075 2.06896C19.8747 2.13818 19.9543 2.19222 20.0415 2.22784C20.1287 2.26345 20.2217 2.27992 20.315 2.27624H24.3666C24.6759 2.27677 24.9723 2.40828 25.1909 2.64196C25.4096 2.87563 25.5326 3.1924 25.5331 3.52286V7.74506H19.5131C18.4623 7.74506 17.4545 8.19117 16.7115 8.98526C15.9684 9.77934 15.551 10.8563 15.551 11.9793C15.551 13.1023 15.9684 14.1794 16.7115 14.9734C17.4545 15.7675 18.4623 16.2136 19.5131 16.2136H25.5247V20.4821C25.5237 20.8119 25.4007 21.1279 25.1825 21.361C24.9643 21.5942 24.6686 21.7257 24.36 21.7268H10.509C10.3499 21.5628 10.1426 21.4627 9.92234 21.4432C9.70206 21.4238 9.48226 21.4862 9.3001 21.62C9.19558 21.6958 9.10625 21.793 9.03733 21.9061C8.96841 22.0192 8.92128 22.1458 8.8987 22.2786C8.87505 22.4112 8.87629 22.5474 8.90233 22.6795C8.92837 22.8116 8.9787 22.9368 9.0504 23.0479C9.12199 23.1603 9.21373 23.2565 9.32031 23.3308C9.42689 23.4051 9.5462 23.4561 9.67134 23.4809C9.72931 23.4908 9.7879 23.4958 9.8466 23.496C10.0399 23.4965 10.2288 23.4344 10.3884 23.3178C10.4319 23.285 10.4731 23.249 10.5118 23.21H24.3629C25.0368 23.2071 25.6823 22.9197 26.1588 22.4105C26.6353 21.9012 26.9042 21.2114 26.9069 20.4912V16.2106H27.0577C27.3076 16.2106 27.5473 16.1045 27.724 15.9157C27.9007 15.7268 28 15.4707 28 15.2036V8.748C28 8.48093 27.9007 8.22481 27.724 8.03597C27.5473 7.84713 27.3076 7.74103 27.0577 7.74103ZM26.3981 14.5884H24.0331V12.1153C24.0326 11.8113 23.9194 11.5198 23.7182 11.3049C23.517 11.0899 23.2443 10.9689 22.9599 10.9684H21.4984C21.3507 10.705 21.1464 10.483 20.9023 10.3209C20.6583 10.1588 20.3816 10.0613 20.0953 10.0363C19.8089 10.0113 19.5211 10.0597 19.2557 10.1774C18.9903 10.2951 18.755 10.4787 18.5693 10.713C18.3836 10.9473 18.2528 11.2256 18.1879 11.5247C18.1229 11.8238 18.1256 12.1351 18.1958 12.4329C18.266 12.7307 18.4016 13.0063 18.5913 13.2368C18.7811 13.4674 19.0196 13.6463 19.287 13.7586C19.5068 13.8525 19.742 13.8985 19.9787 13.894C20.2154 13.8895 20.4489 13.8346 20.6655 13.7325C20.9167 13.6169 21.1399 13.4417 21.3182 13.2201C21.4965 12.9985 21.6252 12.7364 21.6944 12.4536H22.6518V14.4837V14.5914H19.5423C18.8867 14.5903 18.2583 14.3115 17.7948 13.816C17.3313 13.3205 17.0706 12.6488 17.0699 11.9481C17.0706 11.27 17.323 10.6199 17.7717 10.1405C18.2204 9.66097 18.8287 9.39124 19.4632 9.39044H26.4057L26.3981 14.5884ZM20.3677 11.9451C20.3679 12.0342 20.3434 12.1214 20.2972 12.1956C20.2509 12.2697 20.1852 12.3276 20.1082 12.3618C20.0312 12.396 19.9464 12.405 19.8646 12.3876C19.7828 12.3703 19.7077 12.3274 19.6487 12.2644C19.5898 12.2014 19.5496 12.1211 19.5334 12.0337C19.5172 11.9463 19.5256 11.8557 19.5576 11.7734C19.5896 11.6911 19.6437 11.6208 19.7131 11.5714C19.7826 11.5221 19.8641 11.4958 19.9475 11.496C20.0589 11.4963 20.1656 11.5437 20.2444 11.6278C20.3231 11.712 20.3675 11.8261 20.3677 11.9451Z" fill="#8A90A8"/>
<path d="M8.39005 17.8199C7.78131 17.8189 7.19309 17.5847 6.73217 17.1597C6.27126 16.7348 5.9682 16.1473 5.87802 15.5039H6.64877C6.69849 15.7483 6.79277 15.9798 6.92623 16.1853C7.05969 16.3907 7.2297 16.5661 7.42658 16.7013C7.62345 16.8365 7.84332 16.9289 8.07362 16.9733C8.30393 17.0177 8.54016 17.0132 8.76883 16.96C8.99744 16.9071 9.21405 16.8066 9.40627 16.6641C9.59849 16.5217 9.76257 16.3402 9.8891 16.13C10.0156 15.9197 10.1022 15.6849 10.1437 15.4389C10.1853 15.1929 10.1811 14.9406 10.1313 14.6963C10.0483 14.2871 9.84142 13.9186 9.54265 13.6477C9.24389 13.3769 8.86992 13.2188 8.47862 13.198C8.45025 13.1906 8.42114 13.1869 8.39193 13.1869C7.384 13.1823 6.41354 12.778 5.6685 12.0525C4.92347 11.327 4.45689 10.3318 4.35911 9.25974H5.11291C5.20114 10.1219 5.58488 10.9186 6.19018 11.4963C6.79547 12.074 7.57946 12.3918 8.39099 12.3884C9.06572 12.3884 9.71281 12.6748 10.1899 13.1847C10.667 13.6946 10.9351 14.3861 10.9351 15.1072C10.9351 15.214 10.9748 15.3165 11.0455 15.392C11.1161 15.4675 11.212 15.51 11.312 15.51H12.8064C12.9092 15.508 13.0075 15.4642 13.0812 15.3875C13.155 15.3108 13.1985 15.207 13.2031 15.0971C13.1896 13.7542 12.688 12.4696 11.8041 11.5149C10.9203 10.5602 9.72367 10.0104 8.46731 9.98173C8.44339 9.97696 8.4191 9.9746 8.39476 9.97468C8.26014 9.97508 8.12678 9.94709 8.0023 9.89231C7.87782 9.83753 7.76468 9.75704 7.66936 9.65546C7.57404 9.55387 7.49842 9.43318 7.44681 9.30031C7.39521 9.16743 7.36865 9.02498 7.36865 8.88112C7.3684 8.59073 7.47604 8.31211 7.66792 8.10649C7.85979 7.90087 8.12021 7.78507 8.39193 7.78454C8.66359 7.78454 8.92415 7.89965 9.1165 8.10465C9.30886 8.30965 9.41729 8.58779 9.41804 8.8781C9.4192 8.98316 9.45826 9.08368 9.52707 9.15872C9.59589 9.23376 9.68914 9.27752 9.7874 9.28089H11.3129C11.4124 9.27933 11.5074 9.23639 11.5778 9.16119C11.6482 9.08598 11.6883 8.98444 11.6898 8.8781C11.6907 8.01446 11.3943 7.18063 10.8571 6.5355C10.3198 5.89038 9.57917 5.47905 8.77637 5.37991V4.57434C9.77711 4.68072 10.7056 5.17897 11.3832 5.97317C12.0608 6.76737 12.4395 7.80136 12.4464 8.87609C12.4428 8.92933 12.4492 8.9828 12.4651 9.03339C12.4811 9.08398 12.5062 9.13068 12.5392 9.17078C12.5722 9.21088 12.6123 9.24358 12.6572 9.26698C12.7021 9.29037 12.7508 9.304 12.8007 9.30707C12.9005 9.31014 12.998 9.27435 13.0749 9.20637C13.1128 9.17205 13.1438 9.12994 13.1662 9.08254C13.1885 9.03514 13.2017 8.98342 13.2049 8.93046C13.2061 8.91404 13.2061 8.89755 13.2049 8.88112C13.1992 7.52098 12.6911 6.21827 11.7912 5.25649C10.8912 4.29472 9.6722 3.7517 8.39947 3.74561H8.35613C8.26267 3.75539 8.17599 3.80211 8.11307 3.87661C8.05016 3.95111 8.01553 4.04803 8.01598 4.14839V5.75953C8.01598 5.86636 8.05569 5.96881 8.12637 6.04435C8.19705 6.11988 8.29292 6.16232 8.39288 6.16232C8.99913 6.16409 9.58487 6.39717 10.0446 6.81958C10.5043 7.24198 10.8077 7.82594 10.9002 8.46625H10.1294C10.0296 7.97251 9.75043 7.54134 9.35322 7.26754C8.95601 6.99374 8.47332 6.89972 8.01127 7.00615C7.78244 7.05885 7.56557 7.15921 7.37306 7.30151C7.18054 7.4438 7.01614 7.62524 6.88926 7.83546C6.76238 8.04568 6.67551 8.28055 6.6336 8.52666C6.59168 8.77277 6.59556 9.0253 6.64501 9.26981C6.72759 9.67977 6.93457 10.0491 7.23377 10.3204C7.53297 10.5917 7.90765 10.7498 8.29959 10.7702C8.32893 10.7776 8.35897 10.7813 8.38911 10.7813C9.39713 10.7863 10.3676 11.1906 11.1128 11.916C11.8581 12.6414 12.3252 13.6363 12.4238 14.7084H11.67C11.5786 13.8477 11.1933 13.0533 10.588 12.4773C9.98257 11.9014 9.19964 11.5843 8.38911 11.5868C7.71438 11.5868 7.06728 11.3004 6.59018 10.7905C6.11307 10.2806 5.84504 9.5891 5.84504 8.86803C5.84504 8.76121 5.80533 8.65876 5.73465 8.58322C5.66396 8.50768 5.5681 8.46525 5.46814 8.46525H3.97467C3.92196 8.46561 3.86993 8.47797 3.82203 8.5015C3.75084 8.53009 3.68925 8.58071 3.64511 8.6469C3.60097 8.71308 3.57629 8.79182 3.57422 8.87306C3.58057 10.2188 4.07835 11.5087 4.96153 12.4679C5.8447 13.4272 7.04346 13.98 8.30242 14.0086C8.32957 14.0156 8.35742 14.0189 8.38534 14.0187C8.51972 14.0188 8.65276 14.0472 8.77686 14.1023C8.90096 14.1574 9.0137 14.238 9.10863 14.3397C9.20356 14.4413 9.27883 14.5619 9.33014 14.6947C9.38146 14.8274 9.4078 14.9696 9.40768 15.1132C9.40768 15.2569 9.38117 15.3991 9.32968 15.5318C9.27818 15.6645 9.20271 15.785 9.10757 15.8865C9.01244 15.988 8.89952 16.0684 8.77526 16.1232C8.65101 16.178 8.51787 16.206 8.38345 16.2058C8.11223 16.2055 7.85219 16.0902 7.66049 15.8851C7.46879 15.6801 7.36111 15.4021 7.36111 15.1122C7.36111 15.0054 7.32141 14.9029 7.25072 14.8274C7.18004 14.7519 7.08417 14.7094 6.98421 14.7094H5.47285C5.37334 14.711 5.27832 14.7539 5.20796 14.8291C5.13759 14.9043 5.09741 15.0059 5.09595 15.1122C5.09405 15.978 5.391 16.814 5.92994 17.4604C6.46888 18.1068 7.21195 18.518 8.01692 18.6154V19.421C7.01525 19.3151 6.08567 18.8169 5.4072 18.0223C4.72873 17.2277 4.34936 16.1929 4.34215 15.1172C4.34573 15.0639 4.33934 15.0104 4.32335 14.9597C4.30737 14.9091 4.28211 14.8623 4.24904 14.8222C4.21598 14.7821 4.17577 14.7494 4.13077 14.7261C4.08577 14.7027 4.03687 14.6892 3.98692 14.6863C3.88662 14.6816 3.78836 14.7176 3.71179 14.787C3.63547 14.8601 3.58938 14.9626 3.58364 15.0719V15.1102C3.58736 16.4716 4.09467 17.7761 4.9949 18.7393C5.89513 19.7025 7.11525 20.2462 8.38911 20.2518C8.48421 20.2521 8.5759 20.2139 8.6458 20.145C8.7157 20.0761 8.75864 19.9815 8.76601 19.8802C8.76715 19.8634 8.76715 19.8466 8.76601 19.8298V18.2892C8.76829 18.2688 8.76829 18.2482 8.76601 18.2278C8.76663 18.1745 8.75737 18.1217 8.73877 18.0723C8.72017 18.0229 8.69259 17.978 8.65763 17.94C8.62266 17.9021 8.58102 17.872 8.53509 17.8514C8.48916 17.8308 8.43986 17.8201 8.39005 17.8199Z" fill="#8A90A8"/>
</svg>
