<svg width="15" height="14" viewBox="0 0 15 14" fill="none" xmlns="http://www.w3.org/2000/svg">
<path d="M12.9705 8.31104V12.106C12.9703 12.1786 12.9428 12.2485 12.8936 12.3018C12.8443 12.3551 12.7769 12.388 12.7045 12.394H2.29654C2.22429 12.3878 2.15697 12.3548 2.10777 12.3016C2.05856 12.2483 2.03102 12.1786 2.03054 12.106V8.31104H0.831543V12.106C0.834814 12.4956 0.989531 12.8686 1.26295 13.1462C1.53638 13.4237 1.90705 13.584 2.29654 13.593H12.7035C13.0945 13.5886 13.4679 13.4298 13.7423 13.1512C14.0167 12.8727 14.1699 12.497 14.1685 12.106V8.31104H12.9705Z" fill="#00B3F5"/>
<path d="M4.98156 7.37925C4.98053 7.45325 4.99504 7.52664 5.02415 7.59468C5.05327 7.66272 5.09633 7.72389 5.15056 7.77425L7.34456 9.94025C7.44784 10.0432 7.58773 10.101 7.73356 10.101C7.87939 10.101 8.01928 10.0432 8.12256 9.94025L10.2836 7.77425C10.3868 7.66868 10.4446 7.5269 10.4446 7.37925C10.4446 7.2316 10.3868 7.08982 10.2836 6.98425C10.178 6.88103 10.0362 6.82323 9.88856 6.82323C9.74091 6.82323 9.59913 6.88103 9.49356 6.98425L8.27556 8.20225V0.983249C8.27873 0.908716 8.26679 0.834312 8.24045 0.764515C8.21412 0.694718 8.17393 0.630971 8.12232 0.577111C8.0707 0.523251 8.00872 0.480391 7.9401 0.451112C7.87149 0.421832 7.79766 0.406738 7.72306 0.406738C7.64846 0.406738 7.57463 0.421832 7.50602 0.451112C7.4374 0.480391 7.37542 0.523251 7.3238 0.577111C7.27219 0.630971 7.232 0.694718 7.20567 0.764515C7.17933 0.834312 7.16739 0.908716 7.17056 0.983249V8.21425L5.92956 6.98425C5.82293 6.8835 5.68124 6.82826 5.53456 6.83025C5.46072 6.8303 5.38766 6.8453 5.31977 6.87434C5.25189 6.90339 5.19059 6.94588 5.13956 6.99925C5.08953 7.04909 5.04983 7.10831 5.02271 7.17351C4.9956 7.23872 4.98162 7.30863 4.98156 7.37925Z" fill="#00B3F5"/>
</svg>
